# xmcd
#
# Track frame offsets: 
#        150
#        36849
#        76133
#        118844
#        144530
#        190709
#        239027
#        275385
#        314253
#
# Disc length: 4505 seconds
#
# Revision: 1
# Processed by: cddbd v1.5.2PL0 Copyright (c) Steve Scherf et al.
# Submitted via: ExactAudioCopy v0.99pb5
#
DISCID=7b119709
DTITLE=Paul Chambers and Tommy Flanagan - Motor City Scene
DYEAR=1960
DGENRE=Jazz
TTITLE0=Let's Play One
TTITLE1=Minor On Top
TTITLE2=Like Old Times
TTITLE3=No Refill
TTITLE4=Stardust
TTITLE5=Philson
TTITLE6=Trio
TTITLE7=Libeccio
TTITLE8=Bitty Ditty
EXTD=YEAR: 1960
EXTT0=
EXTT1=
EXTT2=
EXTT3=
EXTT4=
EXTT5=
EXTT6=
EXTT7=
EXTT8=
PLAYORDER=
